<?xml version="1.0" standalone="no"?>
<!DOCTYPE svg PUBLIC "-//W3C//DTD SVG 20010904//EN"
 "http://www.w3.org/TR/2001/REC-SVG-20010904/DTD/svg10.dtd">
<svg version="1.0" xmlns="http://www.w3.org/2000/svg"
 width="1024.000000pt" height="1024.000000pt" viewBox="0 0 1024.000000 1024.000000"
 preserveAspectRatio="xMidYMid meet">

<g transform="translate(0.000000,1024.000000) scale(0.100000,-0.100000)"
fill="#000000" stroke="none">
<path d="M0 5120 l0 -5120 5120 0 5120 0 0 5120 0 5120 -5120 0 -5120 0 0
-5120z m5520 3324 c429 -49 910 -205 1270 -412 209 -120 491 -333 664 -501
307 -300 504 -568 676 -916 177 -360 271 -649 326 -1010 25 -164 28 -205 28
-460 0 -216 -4 -308 -17 -405 -51 -355 -131 -645 -263 -948 -83 -190 -228
-442 -255 -442 -6 0 -8 -4 -5 -9 3 -5 0 -14 -7 -20 -10 -8 -19 -5 -36 15 -12
14 -19 29 -16 33 2 5 -4 11 -15 14 -11 3 -20 11 -20 19 0 10 3 9 10 -2 8 -12
10 -13 10 -1 0 8 8 24 18 35 15 19 15 19 0 7 -9 -7 -22 -10 -28 -6 -5 3 -10 0
-10 -7 0 -9 -3 -9 -10 2 -8 13 -10 13 -10 0 0 -10 -7 -8 -22 9 -16 16 -19 25
-10 28 6 3 12 12 12 20 0 12 -7 14 -30 10 -17 -4 -32 -2 -36 5 -4 6 -3 8 3 5
6 -4 21 2 33 13 13 11 18 20 12 20 -6 0 -13 -4 -17 -9 -8 -14 -45 -9 -45 7 0
7 -6 12 -13 10 -16 -3 -146 130 -147 150 0 7 4 11 9 7 18 -10 71 -12 78 -2 3
6 1 7 -5 3 -7 -4 -12 -2 -12 4 0 6 -10 8 -25 4 -30 -8 -33 7 -6 44 28 41 97
191 147 320 82 210 158 512 186 732 19 157 17 596 -5 732 -35 221 -107 485
-189 688 -56 138 -184 399 -230 466 -16 24 -26 49 -22 55 4 8 3 9 -4 5 -7 -4
-12 -3 -12 3 0 5 -6 16 -13 23 -17 18 -44 62 -43 69 1 3 -7 13 -17 23 -9 10
-15 21 -12 26 3 5 0 12 -6 16 -8 5 -9 3 -4 -7 4 -8 -2 -4 -14 9 -12 12 -19 27
-16 32 4 6 3 10 -2 9 -21 -4 -32 3 -38 21 -4 11 -11 18 -16 15 -5 -4 -9 1 -9
10 0 9 -4 14 -9 11 -11 -7 -25 22 -23 49 2 19 1 19 -6 1 -7 -17 -13 -14 -55
24 -26 24 -44 48 -40 54 3 6 3 8 -1 4 -5 -4 -58 36 -119 88 -482 412 -1070
652 -1702 694 -787 52 -1621 -245 -2173 -775 -386 -371 -645 -816 -777 -1334
-90 -356 -105 -710 -45 -1104 88 -584 339 -1096 740 -1511 487 -504 1121 -795
1870 -857 333 -27 740 20 1075 123 72 23 137 42 145 43 8 1 23 6 33 10 10 4
21 5 24 1 3 -3 11 2 18 11 8 10 19 14 30 10 15 -6 15 -10 4 -25 -12 -15 -12
-16 2 -5 9 7 19 10 22 6 4 -3 15 2 26 11 12 11 21 14 26 7 3 -6 1 -11 -5 -11
-6 0 -8 -5 -4 -11 4 -8 9 -7 15 2 4 8 4 18 -1 23 -13 13 -13 39 0 31 6 -3 10
0 10 7 0 9 3 9 10 -2 9 -13 11 -13 21 0 8 12 9 10 4 -7 -7 -24 4 -30 21 -13 7
7 11 6 11 -4 0 -8 -4 -13 -9 -10 -4 3 -8 -3 -8 -12 0 -13 -6 -10 -25 12 l-26
29 4 -38 c4 -38 4 -39 -24 -33 -16 3 -31 1 -35 -6 -4 -6 -3 -8 3 -5 6 4 16 0
23 -8 10 -12 10 -18 0 -30 -7 -8 -17 -12 -23 -8 -6 4 -7 1 -2 -6 5 -9 13 -7
31 10 18 17 21 25 12 31 -13 8 7 13 43 10 9 -1 22 9 28 21 6 12 10 15 7 6 -2
-9 1 -22 7 -28 9 -9 8 -11 -5 -6 -11 4 -20 0 -27 -13 -8 -15 -8 -22 2 -25 6
-3 0 -9 -15 -16 -37 -14 -35 -19 5 -17 28 1 32 -2 30 -24 -2 -22 -1 -23 8 -7
6 9 15 14 21 11 7 -5 9 -2 5 8 -3 10 4 25 19 39 13 12 24 17 24 11 0 -7 -5
-12 -11 -12 -5 0 -8 -4 -5 -9 4 -5 0 -11 -6 -14 -10 -3 -10 -8 1 -18 9 -9 11
-9 7 -1 -5 8 0 12 13 12 12 0 21 5 21 10 0 6 7 10 16 10 8 0 12 -5 8 -11 -4
-7 2 -9 14 -7 12 2 20 0 19 -3 -5 -15 35 -47 53 -42 15 4 18 1 13 -16 -6 -23
-63 -60 -63 -41 0 6 -4 8 -10 5 -5 -3 -10 -2 -10 4 0 5 -13 16 -30 25 -32 16
-38 13 -16 -9 7 -8 16 -11 20 -8 3 4 6 1 6 -5 0 -6 8 -13 19 -17 10 -3 23 -15
30 -28 11 -21 11 -21 6 -1 -4 17 0 23 21 28 14 4 29 5 32 1 3 -3 -3 -5 -13 -5
-10 0 -15 -3 -12 -7 4 -3 2 -12 -4 -20 -6 -7 -8 -13 -4 -13 4 0 2 -7 -5 -15
-7 -8 -9 -15 -4 -15 5 0 2 -5 -6 -11 -13 -9 -13 -10 2 -6 12 4 16 0 15 -15 -1
-17 -32 -36 -154 -95 -184 -89 -386 -157 -633 -211 -271 -60 -406 -75 -665
-75 -708 1 -1342 194 -1935 588 -192 128 -317 231 -485 400 -382 384 -638 794
-811 1298 -189 552 -220 1164 -89 1752 99 444 327 924 617 1296 330 424 693
721 1180 965 377 189 734 287 1228 337 108 11 517 6 640 -9z m1070 -1203 c68
-53 71 -69 68 -323 -3 -211 -4 -228 -24 -254 -34 -46 -70 -67 -123 -72 -64 -6
-126 27 -159 86 -21 38 -22 51 -22 257 0 205 1 219 22 256 50 89 160 112 238
50z m-757 18 c53 -14 105 -63 117 -110 12 -45 3 -259 -11 -259 -5 0 -9 6 -9
14 0 8 -9 18 -20 21 -11 3 -20 13 -20 22 0 9 -6 13 -15 9 -8 -3 -15 -1 -15 4
0 5 -15 16 -32 25 -18 8 -71 42 -118 75 -47 33 -146 90 -220 127 l-135 68 145
5 c260 10 294 10 333 -1z m-898 -57 c192 -37 438 -133 600 -234 257 -161 508
-431 639 -687 64 -124 128 -304 157 -440 40 -187 37 -496 -7 -711 -37 -181
-140 -431 -232 -568 -23 -33 -42 -65 -42 -70 0 -5 35 -47 78 -92 l78 -84 89
94 c106 110 152 135 217 121 52 -12 114 -75 124 -127 13 -72 -4 -95 -324 -426
-166 -172 -316 -323 -334 -335 -68 -49 -176 -21 -215 57 -43 83 -27 142 62
230 30 30 55 59 55 64 0 6 -37 47 -81 92 l-82 82 -78 -58 c-101 -75 -305 -178
-440 -224 -449 -150 -929 -118 -1354 89 -403 196 -718 555 -859 977 -180 542
-101 1098 224 1561 77 109 275 312 380 389 232 169 546 291 835 322 96 10 412
-4 510 -22z m1225 -389 l-1 -78 -35 40 c-81 92 -82 115 -9 115 l45 0 0 -77z
m870 61 c69 -20 158 -106 185 -178 l19 -50 -249 -244 -250 -244 -159 5 -160 5
-36 88 c-19 49 -57 127 -84 174 -27 47 -51 90 -54 95 -3 6 12 -5 33 -24 69
-60 139 -86 230 -86 96 0 149 21 213 84 72 70 95 134 100 274 l4 117 77 0 c43
0 101 -7 131 -16z m318 -1599 c-4 -818 -4 -831 -26 -908 -24 -86 -109 -294
-125 -304 -5 -3 -61 46 -123 108 l-114 114 20 40 c50 102 50 108 50 899 l0
741 158 158 157 157 3 -87 c2 -49 1 -461 0 -918z m-578 350 l0 -125 -120 0
-120 0 0 125 0 125 120 0 120 0 0 -125z m0 -570 l0 -125 -120 0 -120 0 0 125
0 125 120 0 120 0 0 -125z m83 -954 c24 -9 1067 -1051 1151 -1151 141 -165
162 -382 57 -585 -68 -131 -200 -229 -353 -261 -125 -26 -267 1 -373 72 -28
18 -177 163 -331 321 -153 158 -404 415 -557 569 -173 176 -283 295 -292 318
-20 48 -19 99 4 144 20 38 544 565 571 575 25 9 97 8 123 -2z m-3550 -12 c12
-7 96 -84 188 -173 247 -240 386 -344 622 -462 215 -109 504 -197 750 -230
218 -29 585 -17 762 26 44 11 92 21 107 24 15 3 33 8 39 11 5 4 10 1 8 -6 -4
-33 1 -39 29 -33 15 4 32 13 38 20 10 12 12 11 16 -4 5 -19 0 -21 -47 -23 -11
-1 -15 -3 -8 -6 7 -2 9 -11 6 -19 -3 -9 1 -14 12 -14 10 0 13 5 9 12 -4 7 -3
8 4 4 7 -4 12 -2 12 4 0 6 4 9 9 6 5 -3 14 1 21 9 7 8 16 15 21 15 12 0 -24
-35 -44 -43 -9 -3 -17 -11 -17 -17 0 -6 4 -8 10 -5 6 3 7 -1 4 -9 -3 -9 -10
-14 -14 -11 -4 3 -10 -5 -13 -16 -3 -12 -3 -18 0 -15 4 3 12 1 19 -5 8 -7 14
-7 19 1 3 5 -1 10 -10 10 -9 0 -13 4 -10 10 4 6 16 4 31 -6 22 -15 24 -15 24
1 0 11 -5 15 -15 12 -18 -7 -30 9 -14 19 7 4 20 -2 29 -14 10 -12 19 -20 21
-19 3 1 -2 -3 -9 -10 -8 -6 -20 -9 -27 -7 -7 3 -15 -2 -19 -12 -5 -14 -4 -15
9 -4 13 11 14 10 9 -4 -3 -9 -1 -16 5 -16 6 0 11 7 11 15 0 8 5 15 11 15 6 0
9 -7 6 -15 -4 -8 -2 -17 3 -20 4 -3 15 14 24 37 10 27 15 34 13 18 -1 -18 3
-25 15 -24 10 1 15 -2 12 -7 -3 -5 0 -9 6 -9 7 0 5 -6 -4 -15 -15 -16 -31 -21
-22 -7 2 4 1 14 -4 22 -7 11 -13 7 -24 -20 -8 -19 -15 -27 -16 -17 0 9 -8 17
-17 17 -14 0 -15 -2 -4 -9 7 -5 11 -13 7 -19 -10 -16 24 -7 36 9 7 11 9 9 5
-8 -4 -17 -1 -21 14 -18 11 2 19 0 19 -6 0 -5 -6 -9 -14 -9 -8 0 -30 -9 -49
-20 -113 -67 -560 -128 -849 -116 -618 24 -1127 215 -1577 591 -96 80 -279
264 -339 340 -74 94 -75 175 -2 247 33 33 44 38 84 38 26 0 57 -5 69 -11z
m2514 -807 c1 -11 -6 -18 -18 -19 -23 -2 -24 1 -3 21 19 20 19 20 21 -2z m188
-232 c3 -5 1 -10 -4 -10 -6 0 -11 5 -11 10 0 6 2 10 4 10 3 0 8 -4 11 -10z
m455 -454 c0 -2 -7 -7 -16 -10 -8 -3 -12 -2 -9 4 6 10 25 14 25 6z m-125 -35
c3 -6 -3 -15 -14 -20 -14 -8 -20 -7 -24 4 -4 10 -1 12 10 8 11 -4 14 -2 9 5
-4 7 -3 12 3 12 5 0 12 -4 16 -9z m132 -23 c-3 -7 -5 -2 -5 12 0 14 2 19 5 13
2 -7 2 -19 0 -25z m68 -16 c-3 -3 -11 0 -18 7 -9 10 -8 11 6 5 10 -3 15 -9 12
-12z m-132 -6 c4 -10 1 -13 -9 -9 -7 3 -14 9 -14 14 0 14 17 10 23 -5z m72 -6
c3 -5 -1 -10 -9 -10 -9 0 -16 5 -16 10 0 6 4 10 9 10 6 0 13 -4 16 -10z m51
-30 c0 -12 -4 -16 -9 -11 -5 5 -6 14 -3 20 10 15 12 14 12 -9z m-35 -8 c-7 -2
-18 1 -23 6 -8 8 -4 9 13 5 13 -4 18 -8 10 -11z m90 2 c11 -14 10 -15 -7 -12
-12 2 -18 -2 -16 -10 1 -8 -2 -11 -8 -7 -7 4 -7 12 0 26 13 23 14 23 31 3z
m-114 -24 c4 -13 3 -13 -6 0 -5 8 -13 11 -17 7 -4 -3 -1 -13 5 -21 8 -10 9
-16 1 -21 -11 -7 -31 34 -23 48 8 13 36 4 40 -13z m176 -24 c9 1 14 -2 11 -8
-3 -5 -8 -7 -12 -4 -3 3 -10 -1 -16 -9 -9 -13 -11 -11 -13 11 0 15 2 23 5 17
4 -6 15 -9 25 -7z m64 -41 c0 -8 -4 -12 -9 -9 -5 3 -6 10 -3 15 9 13 12 11 12
-6z m-7 -58 c-11 -11 -20 -27 -20 -34 0 -20 8 -16 24 15 8 15 15 21 16 14 0
-7 5 -10 12 -6 7 4 8 3 4 -5 -4 -6 -12 -9 -17 -6 -5 4 -9 2 -9 -3 0 -4 -10
-19 -21 -31 -18 -19 -19 -25 -8 -32 11 -7 8 -14 -14 -35 -24 -22 -28 -24 -25
-8 2 11 -3 25 -12 32 -8 8 -9 11 -2 7 8 -4 12 1 12 15 0 15 5 20 14 17 9 -4
15 4 18 23 3 16 2 31 -1 33 -3 2 0 2 8 0 7 -2 11 2 8 10 -3 8 3 13 14 14 18 2
18 1 -1 -20z m68 -57 c-7 -11 -15 -15 -17 -9 -2 6 3 15 10 20 20 12 21 11 7
-11z m-44 -30 c-6 -6 -10 -3 -10 10 0 13 4 16 10 10 7 -7 7 -13 0 -20z"/>
<path d="M7592 3676 c7 -8 15 -12 17 -11 5 6 -10 25 -20 25 -5 0 -4 -6 3 -14z"/>
<path d="M7620 3650 c0 -5 5 -10 11 -10 5 0 7 5 4 10 -3 6 -8 10 -11 10 -2 0
-4 -4 -4 -10z"/>
<path d="M7660 3651 c0 -6 4 -12 8 -15 5 -3 9 1 9 9 0 8 -4 15 -9 15 -4 0 -8
-4 -8 -9z"/>
<path d="M7650 3626 c0 -2 7 -9 15 -16 9 -7 15 -8 15 -2 0 5 -7 12 -15 16 -8
3 -15 4 -15 2z"/>
<path d="M7696 3601 c-4 -5 3 -7 14 -4 23 6 26 13 6 13 -8 0 -17 -4 -20 -9z"/>
<path d="M7696 3572 c-3 -4 4 -9 15 -9 23 -2 25 3 4 10 -8 4 -16 3 -19 -1z"/>
<path d="M7761 3556 c-13 -7 -20 -15 -15 -18 5 -3 18 3 28 13 23 22 20 23 -13
5z"/>
<path d="M7817 3465 c-10 -7 -14 -16 -9 -19 5 -3 15 1 22 9 17 21 9 27 -13 10z"/>
<path d="M7905 3431 c-3 -5 -2 -12 3 -15 5 -3 9 1 9 9 0 17 -3 19 -12 6z"/>
<path d="M7900 3380 c0 -5 5 -10 11 -10 5 0 7 -4 4 -10 -3 -5 -1 -18 5 -27 7
-12 10 -13 7 -3 -2 8 0 23 5 34 7 13 7 16 -1 12 -6 -4 -11 -2 -11 3 0 6 -4 11
-10 11 -5 0 -10 -4 -10 -10z"/>
<path d="M6255 2529 c-4 -6 -5 -12 -2 -15 2 -3 7 2 10 11 7 17 1 20 -8 4z"/>
<path d="M6260 2497 c0 -2 6 -10 14 -16 11 -9 16 -9 22 1 4 7 4 10 -1 6 -4 -4
-14 -3 -22 3 -7 6 -13 9 -13 6z"/>
<path d="M6380 2470 c0 -5 5 -10 11 -10 5 0 7 5 4 10 -3 6 -8 10 -11 10 -2 0
-4 -4 -4 -10z"/>
<path d="M6360 2440 c-18 -12 -2 -12 25 0 13 6 15 9 5 9 -8 0 -22 -4 -30 -9z"/>
<path d="M6521 2401 c-12 -8 -11 -12 4 -28 17 -16 18 -16 12 0 -3 9 -2 17 3
17 6 0 10 5 10 10 0 12 -10 13 -29 1z"/>
<path d="M6554 2389 c-3 -6 -1 -15 6 -19 10 -6 9 -9 -1 -13 -10 -4 -9 -6 4 -6
9 -1 17 4 17 9 0 6 5 10 12 10 6 0 4 -8 -6 -19 -16 -17 -16 -19 5 -24 27 -7
49 1 49 19 0 18 -5 18 -26 -3 -17 -17 -18 -17 -11 1 9 23 -9 47 -30 39 -11 -4
-14 -2 -9 5 4 7 5 12 2 12 -3 0 -8 -5 -12 -11z"/>
<path d="M6484 2372 c-9 -5 -8 -10 1 -19 11 -10 13 -9 12 7 -1 11 -1 20 -2 20
0 0 -5 -4 -11 -8z"/>
<path d="M6440 2360 c-9 -6 -10 -10 -3 -10 6 0 15 5 18 10 8 12 4 12 -15 0z"/>
<path d="M6476 2292 c-2 -4 -1 -14 4 -22 7 -11 9 -9 7 8 -1 24 -3 26 -11 14z"/>
<path d="M6505 2290 c-3 -5 -1 -10 4 -10 6 0 11 5 11 10 0 6 -2 10 -4 10 -3 0
-8 -4 -11 -10z"/>
<path d="M6564 2241 c1 -10 -6 -15 -17 -14 -10 0 -16 -2 -13 -5 3 -3 0 -12 -7
-20 -10 -13 -9 -14 9 -4 12 6 24 9 28 7 3 -3 4 -2 1 1 -2 4 5 14 17 24 21 17
21 17 1 22 -15 4 -20 1 -19 -11z"/>
<path d="M6580 2200 c0 -6 7 -10 15 -10 8 0 15 2 15 4 0 2 -7 6 -15 10 -8 3
-15 1 -15 -4z"/>
<path d="M4455 6834 c-285 -42 -484 -129 -701 -305 -238 -193 -408 -492 -459
-807 -21 -126 -16 -365 9 -487 39 -182 111 -343 226 -507 266 -377 727 -583
1206 -540 489 43 901 314 1107 727 134 270 172 618 97 909 -60 236 -174 433
-354 611 -201 199 -417 316 -694 375 -94 21 -363 35 -437 24z m800 -388 c68
-21 148 -78 185 -131 29 -42 184 -379 217 -470 7 -22 31 -58 53 -80 21 -22 52
-67 67 -100 27 -57 28 -67 28 -205 -1 -156 -12 -215 -62 -315 -39 -77 -84
-127 -151 -165 l-61 -35 -1 -103 c0 -113 -11 -152 -55 -192 -25 -23 -33 -25
-135 -25 l-109 0 -35 34 c-41 40 -56 95 -56 206 l0 75 -514 0 -513 0 -5 -109
c-4 -100 -7 -112 -32 -145 -41 -54 -72 -66 -170 -66 -77 0 -87 2 -117 27 -48
40 -59 78 -59 197 l0 104 -53 30 c-145 82 -230 259 -230 482 0 149 34 237 123
320 31 29 50 66 105 205 130 324 157 372 243 422 86 51 96 52 713 52 474 1
584 -2 624 -13z"/>
<path d="M4003 6250 c-18 -10 -39 -30 -48 -43 -24 -37 -143 -325 -137 -332 8
-8 1632 -6 1632 2 0 20 -125 302 -147 331 -48 64 -22 62 -675 62 -570 0 -594
-1 -625 -20z"/>
<path d="M3842 5555 c-52 -16 -78 -38 -103 -87 -66 -129 45 -273 189 -246 101
18 159 109 132 207 -27 100 -122 155 -218 126z"/>
<path d="M5280 5540 c-82 -49 -113 -152 -69 -230 81 -143 294 -109 324 52 9
49 -30 136 -76 168 -47 34 -131 38 -179 10z"/>
<path d="M4373 5484 c-68 -34 -93 -126 -53 -191 36 -59 54 -63 307 -63 245 0
260 3 297 53 28 38 28 122 1 160 -39 52 -63 57 -302 57 -179 0 -224 -3 -250
-16z"/>
<path d="M5721 3248 c-11 -18 -11 -18 14 -2 29 19 30 21 11 21 -7 0 -19 -9
-25 -19z"/>
<path d="M5747 3243 c-12 -12 -7 -22 8 -17 8 4 15 10 15 15 0 11 -14 12 -23 2z"/>
<path d="M5764 3215 c-18 -14 -18 -14 4 -8 12 3 22 9 22 14 0 12 -3 11 -26 -6z"/>
<path d="M5790 3190 c0 -12 28 -21 35 -11 2 5 -4 11 -15 14 -11 3 -20 2 -20
-3z"/>
<path d="M5865 3070 c3 -5 8 -10 11 -10 2 0 4 5 4 10 0 6 -5 10 -11 10 -5 0
-7 -4 -4 -10z"/>
<path d="M6650 2236 c0 -8 5 -18 10 -21 6 -3 10 1 10 9 0 8 -4 18 -10 21 -5 3
-10 -1 -10 -9z"/>
</g>
</svg>
